<?xml version="1.0" encoding="utf-8"?>
<!-- Generator: Adobe Illustrator 20.1.0, SVG Export Plug-In . SVG Version: 6.00 Build 0)  -->
<!DOCTYPE svg PUBLIC "-//W3C//DTD SVG 1.1//EN" "http://www.w3.org/Graphics/SVG/1.1/DTD/svg11.dtd" [
	<!ENTITY ns_extend "http://ns.adobe.com/Extensibility/1.0/">
	<!ENTITY ns_ai "http://ns.adobe.com/AdobeIllustrator/10.0/">
	<!ENTITY ns_graphs "http://ns.adobe.com/Graphs/1.0/">
	<!ENTITY ns_vars "http://ns.adobe.com/Variables/1.0/">
	<!ENTITY ns_imrep "http://ns.adobe.com/ImageReplacement/1.0/">
	<!ENTITY ns_sfw "http://ns.adobe.com/SaveForWeb/1.0/">
	<!ENTITY ns_custom "http://ns.adobe.com/GenericCustomNamespace/1.0/">
	<!ENTITY ns_adobe_xpath "http://ns.adobe.com/XPath/1.0/">
]>
<svg version="1.1" id="Layer_1" xmlns:x="&ns_extend;" xmlns:i="&ns_ai;" xmlns:graph="&ns_graphs;"
	 xmlns="http://www.w3.org/2000/svg" xmlns:xlink="http://www.w3.org/1999/xlink" x="0px" y="0px" viewBox="0 0 367.4 275.8"
	 enable-background="new 0 0 367.4 275.8" xml:space="preserve">
<metadata>
	<sfw  xmlns="&ns_sfw;">
		<slices></slices>
		<sliceSourceBounds  bottomLeftOrigin="true" height="248.6" width="372.3" x="-2" y="12.7"></sliceSourceBounds>
	</sfw>
</metadata>
<g>
	<g>
		<path fill="#FFFFFF" d="M167.9,73.9c-9.1,0-16.5-7.4-16.5-16.5v-22c0-9.1,7.4-16.5,16.5-16.5h22.4c9.1,0,16.5,7.4,16.5,16.5v22.1
			c0,9.1-7.4,16.5-16.5,16.5L167.9,73.9L167.9,73.9z M167.9,29.1c-3.4,0-6.2,2.8-6.2,6.2v22.1c0,3.4,2.8,6.2,6.2,6.2h22.4
			c3.4,0,6.2-2.8,6.2-6.2v-5.1h-17.6c-2.5,0-4.5-2-4.5-4.5V45c0-2.5,2-4.5,4.5-4.5h17.6v-5.1c0-3.4-2.8-6.2-6.2-6.2h-22.4V29.1z"/>
	</g>
	<g>
		<path fill="#FFFFFF" d="M190.2,21.1c7.8,0,14.2,6.4,14.2,14.2v22.1c0,7.8-6.4,14.2-14.2,14.2h-22.4c-7.8,0-14.2-6.4-14.2-14.2v-22
			c0-7.8,6.4-14.2,14.2-14.2h22.4 M167.9,65.9h22.4c4.7,0,8.5-3.8,8.5-8.5V50h-19.9c-1.2,0-2.3-1-2.3-2.3V45c0-1.2,1-2.3,2.3-2.3
			h19.9v-7.4c0-4.7-3.8-8.5-8.5-8.5h-22.4c-4.7,0-8.5,3.8-8.5,8.5v22.1C159.4,62.1,163.2,65.9,167.9,65.9 M190.2,16.6h-22.4
			c-10.3,0-18.7,8.4-18.7,18.7v22.1c0,10.3,8.4,18.7,18.7,18.7h22.4c10.3,0,18.7-8.4,18.7-18.7v-22C209,25,200.6,16.6,190.2,16.6
			L190.2,16.6z M167.9,61.4c-2.2,0-4-1.8-4-4v-22c0-2.2,1.8-4,4-4h22.4c2.2,0,4,1.8,4,4v2.9H179c-3.8,0-6.8,3.1-6.8,6.8v2.8
			c0,3.8,3.1,6.8,6.8,6.8h15.3v2.9c0,2.2-1.8,4-4,4h-22.4V61.4z"/>
	</g>
</g>
<rect x="48.3" y="113" fill="#FFFFFF" width="28.3" height="19"/>
<rect x="284" y="113" fill="#FFFFFF" width="28.3" height="19"/>
<g>
	<circle fill="#FFFFFF" cx="181.4" cy="142.1" r="114.5"/>
</g>
<g>
	<g>
		<path fill="#6EB353" d="M184,261c-64.4,0-116.8-52.3-116.8-116.8c0-26.8,9.4-53,26.3-73.8c16.7-20.5,40.1-34.8,65.7-40.3l5.2-1.1
			v26.3l-3.2,0.9c-40.2,10.3-68.3,46.6-68.3,88.1c0,50.2,40.8,91,91,91s91-40.8,91-91c0-17.4-5-34.5-14.4-49.1
			c-9.6-14.9-23.2-26.6-39.2-33.8l-1.7-0.8l-2.8-8.3c-1.7-5.1,1.1-10.6,6.1-12.3l7.8-2.6l1.5,0.8c20.8,9.5,38.1,24.7,50.4,44.1l0,0
			l0.9,1.5l3.6,6h-0.1c8.8,16.8,13.6,35.5,13.6,54.6C300.8,208.6,248.3,261,184,261z"/>
		<path fill="#CCCDCF" d="M162.3,31.7v21.9l-1.6,0.4c-41.1,10.6-69.9,47.7-69.9,90.3c0,51.4,41.8,93.2,93.2,93.2
			s93.2-41.8,93.2-93.2c0-17.9-5.1-35.3-14.8-50.3l0,0c-9.8-15.2-23.6-27.1-40.1-34.6l-0.9-0.4l-2.5-7.4c-1.3-4,0.9-8.2,4.7-9.6
			l6.1-2l0,0l0.8-0.2l0.8,0.3c21,9.6,38.3,25,50.3,44.7l0,0l0.9,1.5l0,0l1.4,2.3l0,0c9.5,17,14.5,36.2,14.5,55.8
			c0,63.2-51.4,114.6-114.6,114.6S69.4,207.4,69.4,144.2c0-26.4,9.2-52,25.7-72.4c16.4-20,39.3-34.1,64.5-39.5L162.3,31.7
			 M166.6,26.4l-5.2,1.1l-2.6,0.5c-26.2,5.7-50,20.2-66.9,41c-17.2,21.1-26.7,47.8-26.7,75.2c0,65.6,53.3,118.9,118.9,118.9
			S303,209.8,303,144.2c0-18.5-4.3-36.8-12.6-53.3l0.2-0.1l-2.7-4.6l-1.4-2.3l0,0l0,0l-0.9-1.4l-1.7-3h-0.1
			c-12.4-19.1-29.7-34-50.4-43.4l-0.8-0.3l-1.5-0.8l-1.6,0.5l-0.8,0.2l-6.1,2c-6.2,2-9.6,8.8-7.5,15l2.5,7.4l0.6,1.8l1.7,0.8
			l0.9,0.4c15.6,7.1,28.9,18.5,38.2,33c9.3,14.3,14.1,30.9,14.1,48c0,49-39.9,88.9-88.9,88.9s-88.9-39.9-88.9-88.9
			c0-40.6,27.4-75.9,66.7-86.1l1.6-0.4l3.2-0.9v-3.3V31.7L166.6,26.4L166.6,26.4z"/>
	</g>
	<g>
		<g>
			<path fill="#6EB353" d="M172,68.8c-8.6,0-15.6-7-15.6-15.6V32.3c0-8.6,7-15.6,15.6-15.6h21.2c8.6,0,15.6,7,15.6,15.6v21
				c0,8.6-7,15.6-15.6,15.6H172V68.8z M172,26.4c-3.2,0-5.9,2.7-5.9,5.9v21c0,3.2,2.7,5.9,5.9,5.9h21.2c3.2,0,5.9-2.7,5.9-5.9v-4.8
				h-16.7c-2.4,0-4.3-1.9-4.3-4.3v-2.6c0-2.4,1.9-4.3,4.3-4.3h16.7v-4.8c0-3.2-2.7-5.9-5.9-5.9H172V26.4z"/>
		</g>
		<g>
			<path fill="#CCCDCF" d="M193.2,18.8c7.4,0,13.5,6,13.5,13.5v21c0,7.4-6,13.5-13.5,13.5H172c-7.4,0-13.5-6-13.5-13.5v-21
				c0-7.4,6-13.5,13.5-13.5H193.2 M172,61.3h21.2c4.4,0,8.1-3.7,8.1-8.1v-7h-18.8c-1.2,0-2.2-1-2.2-2.2v-2.6c0-1.2,1-2.2,2.2-2.2
				h18.8v-7c0-4.4-3.7-8.1-8.1-8.1H172c-4.4,0-8.1,3.7-8.1,8.1v21C163.9,57.7,167.5,61.3,172,61.3 M193.2,14.5H172
				c-9.8,0-17.8,8-17.8,17.8v21c0,9.8,8,17.8,17.8,17.8h21.2c9.8,0,17.8-8,17.8-17.8v-21C210.9,22.5,203,14.5,193.2,14.5L193.2,14.5
				z M172,57c-2,0-3.8-1.7-3.8-3.8V32.3c0-2,1.7-3.8,3.8-3.8h21.2c2,0,3.8,1.7,3.8,3.8V35h-14.5c-3.6,0-6.5,2.9-6.5,6.5V44
				c0,3.6,2.9,6.5,6.5,6.5h14.5v2.7c0,2-1.7,3.8-3.8,3.8L172,57L172,57z"/>
		</g>
	</g>
	<g>
		<g>
			<polygon fill="#6EB353" points="2.6,175 16.3,150.2 2.6,125.5 63.9,125.5 63.9,175 			"/>
			<path fill="#FFFFFF" d="M61.2,128.2v44.2H7.2l12.3-22.1L7.2,128.2H61.2 M66.6,122.8h-5.4H7.2H-2l4.4,8l10.8,19.5L2.4,169.7
				l-4.4,8h9.2h54.1h5.4v-5.4v-44.2V122.8L66.6,122.8z"/>
		</g>
		<g>
			<polygon fill="#6EB353" points="304.4,175 304.4,125.5 365.8,125.5 352,150.2 365.8,175 			"/>
			<path fill="#FFFFFF" d="M361.2,128.2l-12.3,22.1l12.3,22.1h-54.1v-44.2H361.2 M370.4,122.8h-9.2h-54.1h-5.4v5.4v44.2v5.4h5.4
				h54.1h9.2l-4.4-8l-10.8-19.5l10.8-19.5L370.4,122.8L370.4,122.8z"/>
		</g>
		<rect x="46.5" y="118.1" fill="#60984D" width="274.7" height="47.6"/>
	</g>
	<g enable-background="new    ">
		<path fill="#FFFFFF" d="M95.2,141.3c0,9.2-4.5,17.4-15.6,17.4c-9,0-16.4-6.8-16.4-16.6c0-9.3,7.3-16.5,16.3-16.5
			c6.3,0,11.3,3,14.4,7.5c-1.2,1-3.3,2.7-4.7,3.7c-1.9-2.8-5-5.5-9.4-5.5c-6,0-10.3,4.9-10.3,11.1c0,6,4.4,10.6,10.3,10.6
			c4.5,0,8.1-2.2,8.7-6.6c-2.1,0-6.8,0-8.7,0c0-1,0-5.1,0-5.1S93.3,141.3,95.2,141.3z"/>
		<path fill="#FFFFFF" d="M106.5,144.5V158h-5.9v-31.6c0,0,6.9,0,10.9,0c5.2,0,9.5,3.7,9.5,9.5c0,5.1-3.7,8-7.7,8.7
			c0.6,0.8,10,13.4,10,13.4h-7.4L106.5,144.5z M106.5,131.3v9.6c0,0,2.2,0,3.7,0c2,0,4.6-1.4,4.6-5c0-3.5-2.4-4.6-5.1-4.6
			C108.1,131.3,106.5,131.3,106.5,131.3z"/>
		<path fill="#FFFFFF" d="M127.4,158v-31.6h17.1v5.2h-11.1v8h10.9v5.1h-10.9v8.3h11v5H127.4z"/>
		<path fill="#FFFFFF" d="M150.8,158v-31.6H168v5.2h-11.1v8h10.9v5.1h-10.9v8.3h11v5H150.8z"/>
		<path fill="#FFFFFF" d="M180.3,135.3V158h-6v-31.6h6.1l16,22.9v-22.9h5.9V158h-6L180.3,135.3z"/>
		<path fill="#FFFFFF" d="M237.1,158c-5.3,0-13.6,0-13.6,0v-31.6c0,0,7.6,0,12.4,0c4.1,0,7.3,3.6,7.3,7.9c0,3-1.2,5.5-3.8,6.6v0.1
			c3.1,0.1,6.6,3.8,6.6,7.9C245.9,154.4,241.6,158,237.1,158z M229.3,131.4v7.8c0,0,2.7,0,4.2,0c2,0,3.6-1.6,3.6-4.1
			c0-1.9-1.4-3.6-3.5-3.6C232,131.4,229.3,131.4,229.3,131.4z M229.3,144.1v9.1c0,0,4.3,0,5.8,0c2.2,0,4.5-1.3,4.5-4.6
			c0-3-2.4-4.5-4.5-4.5C233.6,144.1,229.3,144.1,229.3,144.1z"/>
		<path fill="#FFFFFF" d="M250.8,158v-31.6H268v5.2h-11.1v8h10.9v5.1h-10.9v8.3h11v5H250.8z"/>
		<path fill="#FFFFFF" d="M274.3,158v-31.6h6v26.2h9.9v5.4H274.3z"/>
		<path fill="#FFFFFF" d="M304.3,131.9V158h-6v-26.1h-6.5v-5.5h19v5.5H304.3z"/>
	</g>
	<g enable-background="new    ">
		<path d="M139.5,204.2c-1.1,0.7-2.6,1.2-3.9,1.2c-6.9,0-6.5-9-5.7-14c0.8-4.8,2.7-16.1,10.7-16.1c1.1,0,2.5,0.3,3.3,0.9l-0.5,3
			c-1-0.7-1.9-1.3-3.2-1.3c-4.8,0-6.5,6.9-7.4,12.4c-0.5,3.4-2,12.5,3.2,12.5c1.3,0,2.7-0.6,3.8-1.3L139.5,204.2z"/>
		<path d="M156.4,178.1h-6.5l-1.6,10.4h6.3l-0.4,2.5h-6.3l-1.8,11.5h6.5l-0.4,2.5h-9.2l4.7-29.4h9.2L156.4,178.1z"/>
		<path d="M156.1,205l4.7-29.4h2.9c4.1,0,8,0.3,6.8,7.5c-0.6,3.7-2,7.4-6.7,7.6L168,205h-2.9l-4-14.4h-0.1l-2.3,14.4H156.1z
			 M161.4,188.4h1c3.8,0,4.7-1.3,5.3-5.2c0.7-4.6-0.6-5.1-4.1-5.1h-0.5L161.4,188.4z"/>
		<path d="M184,178.1h-4.4l-4.3,26.9h-2.7l4.3-26.9h-4.4l0.4-2.5h11.5L184,178.1z"/>
		<path d="M185.1,205h-2.7l4.7-29.4h2.7L185.1,205z"/>
		<path d="M203.4,178.1h-6.7l-1.6,10.4h6.3L201,191h-6.3l-2.2,14h-2.7l4.7-29.4h9.4L203.4,178.1z"/>
		<path d="M205.8,205h-2.7l4.7-29.4h2.7L205.8,205z"/>
		<path d="M224,178.1h-6.5l-1.6,10.4h6.3l-0.4,2.5h-6.3l-1.8,11.5h6.5l-0.4,2.5h-9.2l4.7-29.4h9.2L224,178.1z"/>
		<path d="M228.3,175.6h3c5.6,0,9.2,0.7,6.9,14.7c-1.8,11.5-4.2,14.7-11.4,14.7h-3.2L228.3,175.6z M226.8,202.5h0.8
			c5.3,0,6.5-3.7,7.9-12.2c1.6-10.1,0.9-12.2-4.3-12.2h-0.5L226.8,202.5z"/>
	</g>
	<path fill="#FFFFFF" d="M266.6,85.5c-0.9-1.2-0.5-2.9,0.6-3.8l0,0c1.2-0.9,2.9-0.5,3.8,0.6l0,0c0.9,1.2,0.5,2.9-0.6,3.8l0,0
		c-0.4,0.3-1.1,0.5-1.6,0.5l0,0C268,86.6,267.2,86.3,266.6,85.5z M258.8,75.8c-1-1.1-1-2.8,0.2-3.8l0,0c1.1-1,2.8-1,3.8,0.2l0,0
		c1,1.1,1,2.8-0.2,3.8l0,0c-0.5,0.4-1.2,0.8-1.8,0.8l0,0C260.1,76.7,259.3,76.4,258.8,75.8z M249.8,67.1c-1.1-1-1.3-2.7-0.3-3.8l0,0
		c1-1.1,2.7-1.3,3.8-0.3l0,0c1.1,1,1.3,2.7,0.3,3.8l0,0c-0.5,0.6-1.3,1-2,1l0,0C251,67.7,250.4,67.5,249.8,67.1z M239.9,59.6
		L239.9,59.6c-1.3-0.9-1.6-2.5-0.8-3.8l0,0c0.9-1.2,2.5-1.6,3.8-0.8l0,0c1.3,0.9,1.6,2.5,0.8,3.8l0,0c-0.5,0.8-1.4,1.2-2.3,1.2l0,0
		C240.9,60,240.4,59.9,239.9,59.6z"/>
	<path id="SVGID_x5F_1_x5F_" fill="none" d="M294.4,145.6c0-60.4-49-109.3-109.3-109.3S75.8,85.2,75.8,145.6s49,109.3,109.3,109.3
		S294.4,206,294.4,145.6z"/>
	<g>
		<g>
			<polygon fill="#6EB353" points="227.6,79.7 198.2,79.7 198.2,87.3 209.1,87.3 209.1,110.4 216.7,110.4 216.7,87.3 227.6,87.3 			
				"/>
			<path fill="#6EB353" d="M137.6,110.4h7.5V79.7h-7.5V110.4z M154.6,94.8l12-15.1h-10.8L145,94.8l0,0l0,0l11.2,15.5H167L154.6,94.8
				z"/>
			<path fill="#6EB353" d="M193.2,97.3c1.8-1.8,3-4.4,3-7.2c0-5.7-4.6-10.3-10.3-10.3h-16.6c0,0-0.1,0-0.1,0.1v0.1v30.5h7.5v-10h7.9
				c1.4,0,2.6,1.2,2.7,2.6l0,0l1.1,7.5h7.8c0,0-1-7.6-1-7.8C194.8,100.3,194.3,98.9,193.2,97.3z M176.8,87.3h9
				c1.5,0,2.7,1.2,2.7,2.7c0,1.5-1.2,2.7-2.7,2.7h-9V87.3z"/>
		</g>
	</g>
	<g>
		<path fill="#FFFFFF" d="M86.4,191.2l-0.3-0.7l3.1-5l-0.1-0.3l-4.5,2l-0.3-0.6l9.4-4.1l0.5,1.2c0.3,0.8,0.6,1.5,0.5,2.4
			c-0.2,0.9-0.8,1.5-1.6,1.8c-1.6,0.7-3,0-3.6-1.6L86.4,191.2z M90,185.7c0.3,0.6,0.5,1.2,1.2,1.5c0.6,0.3,1.2,0.3,1.8,0
			c0.7-0.3,1.3-0.9,1.3-1.7c0-0.6-0.3-1.2-0.5-1.8l-0.2-0.4l-3.8,1.7L90,185.7z"/>
		<path fill="#FFFFFF" d="M97.8,192.3l-3.3,1.8l2,3.6l-0.5,0.3l-2-3.6l-4.1,2.3l2.1,3.7l-0.5,0.3l-2.4-4.3l9-5.1l2.4,4.3l-0.5,0.3
			L97.8,192.3z"/>
		<path fill="#FFFFFF" d="M106.3,207.9c0.3-1.2,0-2.7-0.7-3.7c-1.5-2.1-4.5-2.5-6.6-1c-1,0.7-1.6,1.8-1.8,3
			c-0.2,1.2,0.1,2.5,0.8,3.5c0.7,1,2.1,1.8,3.3,1.9l-0.7,0.5c-1.2-0.3-2.3-1-3.1-2c-1.7-2.3-1.2-5.7,1.1-7.4
			c2.4-1.7,5.7-1.1,7.4,1.2c0.7,1,1.1,2.3,0.9,3.5L106.3,207.9z"/>
		<path fill="#FFFFFF" d="M107.2,221.2l-0.5-0.5l1.3-5.8l-0.2-0.2l-3.6,3.3l-0.4-0.5l7.5-7l0.9,0.9c0.6,0.6,1.1,1.2,1.2,2.1
			c0.1,0.9-0.3,1.7-0.9,2.3c-1.3,1.2-2.8,0.9-4-0.3L107.2,221.2z M108.8,214.9c0.4,0.5,0.9,0.9,1.6,1c0.6,0.1,1.2-0.2,1.7-0.6
			c0.6-0.5,0.9-1.3,0.6-2.1c-0.2-0.6-0.7-1.1-1.1-1.5l-0.3-0.3l-3.1,2.8L108.8,214.9z"/>
		<path fill="#FFFFFF" d="M122.9,221.7l0.5,0.4l-4.2,4.8c-0.7,0.8-1.3,1.5-2.4,1.7c-1,0.1-2.1-0.2-2.9-0.9s-1.3-1.7-1.3-2.7
			c0-1.1,0.6-1.8,1.3-2.6l4.2-4.8l0.5,0.4l-4.1,4.7c-0.6,0.7-1.2,1.4-1.3,2.3c0,0.8,0.5,1.7,1.1,2.3c0.6,0.5,1.6,0.9,2.4,0.8
			c0.8-0.2,1.5-0.9,2.1-1.6L122.9,221.7z"/>
		<path fill="#FFFFFF" d="M122.3,234.1l-0.5-0.4l6-8.4l0.5,0.4L122.3,234.1z"/>
		<path fill="#FFFFFF" d="M129.5,238.8l-0.6-0.3l5-8.3l-2.3-1.4l0.3-0.5l5.1,3.1l-0.3,0.5l-2.3-1.4L129.5,238.8z"/>
		<path fill="#FFFFFF" d="M148.1,238.7L148.1,238.7l-6.9,6.6l0.3-9.5l0,0l-5.1,7.1l-0.6-0.3l6.3-8.8l-0.4,10.1l7.3-7l-2.3,10.6
			l-0.6-0.3L148.1,238.7z"/>
		<path fill="#FFFFFF" d="M155.6,240.1l-1.1,3.6l4,1.2l-0.2,0.6l-4-1.2l-1.3,4.5l4.1,1.2l-0.2,0.6l-4.7-1.4l2.9-9.8l4.7,1.4
			l-0.2,0.6L155.6,240.1z"/>
		<path fill="#FFFFFF" d="M172.3,254l-7-10.5l-1.5,8.7l-0.6-0.1l1.7-10.3l7,10.4l1.5-8.8l0.6,0.1L172.3,254z"/>
		<path fill="#FFFFFF" d="M181.2,254.3l-0.7,0l0.4-9.7l-2.7-0.1l0-0.6l6,0.3l0,0.6l-2.7-0.1L181.2,254.3z"/>
		<path fill="#FFFFFF" d="M198.2,250.4l-0.9,3.5l-0.7,0.1l2.8-11.1l5.7,9.9l-0.7,0.1l-1.8-3.2L198.2,250.4z M199.7,244.5l-1.3,5.2
			l4-0.5L199.7,244.5z"/>
		<path fill="#FFFFFF" d="M208.1,241.7l1.8-0.5c1.5-0.4,2.7-0.4,4,0.3c1.3,0.7,2.2,1.9,2.6,3.3c0.4,1.4,0.2,2.8-0.6,4
			c-0.8,1.3-1.9,1.9-3.4,2.3l-1.8,0.5L208.1,241.7z M212.3,250.6c1.3-0.3,2.3-0.9,3-2.1c0.6-1.1,0.8-2.3,0.5-3.5
			c-0.3-1.3-1.1-2.3-2.3-2.9c-1.2-0.6-2.3-0.6-3.5-0.2l-1.1,0.3l2.3,8.8L212.3,250.6z"/>
		<path fill="#FFFFFF" d="M225.3,245.5L225.3,245.5l-0.3-9.3l0.6-0.2l0.4,11.2l-7.3-8.5l0.6-0.2L225.3,245.5z"/>
		<path fill="#FFFFFF" d="M230.5,234.4l1.7,3.3l3.7-1.9l0.3,0.5l-3.7,1.9l2.2,4.2l3.8-2l0.3,0.5l-4.4,2.3l-4.7-9.1l4.4-2.3l0.3,0.5
			L230.5,234.4z"/>
		<path fill="#FFFFFF" d="M248.4,235l-0.6,0.4l-5.5-2.2l-0.3,0.2l2.7,4.1l-0.5,0.4l-5.6-8.6l1.1-0.7c0.7-0.5,1.4-0.9,2.2-0.8
			c0.9,0,1.6,0.5,2.1,1.3c1,1.5,0.4,2.9-1,3.9L248.4,235z M242.3,232.4c0.5-0.4,1.1-0.7,1.2-1.4c0.2-0.6,0.1-1.2-0.3-1.8
			c-0.4-0.6-1.1-1.1-1.9-1c-0.6,0.1-1.2,0.5-1.7,0.8l-0.4,0.2l2.3,3.5L242.3,232.4z"/>
		<path fill="#FFFFFF" d="M254.6,230.3l-0.5,0.4l-6-7.6l-2.1,1.7l-0.4-0.5l4.7-3.7l0.4,0.5l-2.1,1.7L254.6,230.3z"/>
		<path fill="#FFFFFF" d="M261.1,224.6l-0.5,0.4l-7-7.5l0.5-0.4L261.1,224.6z"/>
		<path fill="#FFFFFF" d="M262.5,210.8c-0.9-0.1-1.6,0-2.3,0.7c-0.7,0.8-0.6,2,0.2,2.8c0.8,0.7,1.8,0.3,2.7-0.1l2.1-0.8
			c0.9-0.2,1.6-0.1,2.3,0.5c1.3,1.1,1.2,3.2,0.1,4.4c-1,1.1-2.4,1.3-3.7,0.8l0.2-0.6c1.1,0.4,2.2,0.3,3-0.6c0.9-1,0.9-2.6-0.1-3.5
			c-0.9-0.8-2-0.2-2.9,0.1l-2,0.7c-0.8,0.2-1.5,0.1-2.1-0.4c-1.1-1-1.2-2.6-0.2-3.7c0.7-0.8,1.8-1.1,2.8-0.9L262.5,210.8z"/>
		<path fill="#FFFFFF" d="M273.6,210.7l-0.4,0.5L265,205l0.4-0.5L273.6,210.7z"/>
		<path fill="#FFFFFF" d="M282.6,197.7l-12.3,2.6l7.6,4.6l-0.3,0.6l-8.9-5.4l12.3-2.7l-7.7-4.6l0.3-0.6L282.6,197.7z"/>
		<path fill="#FFFFFF" d="M284.5,180.7c1.2,0.5,2.2,1.1,2.7,2.3c0.6,1.3,0.6,2.9,0,4.2c-1.1,2.6-4.3,3.9-6.9,2.8
			c-2.7-1.1-4-4.3-2.8-7c0.7-1.7,2.2-2.8,3.9-3.2l0.2,0.7c-1.6,0.3-2.9,1.3-3.6,2.8c-1,2.3,0.2,5.2,2.5,6.1c2.3,1,5.1-0.1,6.1-2.5
			c0.4-1,0.4-2.2,0.1-3.2c-0.3-1.1-1-1.7-2-2.2l-1.4,3.4l-0.6-0.2L284.5,180.7z"/>
	</g>
</g>
</svg>
