<?xml version="1.0" encoding="utf-8"?>
<!-- Generator: Adobe Illustrator 20.1.0, SVG Export Plug-In . SVG Version: 6.00 Build 0)  -->
<!DOCTYPE svg PUBLIC "-//W3C//DTD SVG 1.1//EN" "http://www.w3.org/Graphics/SVG/1.1/DTD/svg11.dtd" [
	<!ENTITY ns_extend "http://ns.adobe.com/Extensibility/1.0/">
	<!ENTITY ns_ai "http://ns.adobe.com/AdobeIllustrator/10.0/">
	<!ENTITY ns_graphs "http://ns.adobe.com/Graphs/1.0/">
	<!ENTITY ns_vars "http://ns.adobe.com/Variables/1.0/">
	<!ENTITY ns_imrep "http://ns.adobe.com/ImageReplacement/1.0/">
	<!ENTITY ns_sfw "http://ns.adobe.com/SaveForWeb/1.0/">
	<!ENTITY ns_custom "http://ns.adobe.com/GenericCustomNamespace/1.0/">
	<!ENTITY ns_adobe_xpath "http://ns.adobe.com/XPath/1.0/">
]>
<svg version="1.1" id="Layer_1" xmlns:x="&ns_extend;" xmlns:i="&ns_ai;" xmlns:graph="&ns_graphs;"
	 xmlns="http://www.w3.org/2000/svg" xmlns:xlink="http://www.w3.org/1999/xlink" x="0px" y="0px" viewBox="0 0 1600 1600"
	 enable-background="new 0 0 1600 1600" xml:space="preserve">
<metadata>
	<sfw  xmlns="&ns_sfw;">
		<slices></slices>
		<sliceSourceBounds  bottomLeftOrigin="true" height="1154.4" width="1504.3" x="45.6" y="-1377.7"></sliceSourceBounds>
	</sfw>
</metadata>
<g>
	<g>
		<path fill="#6DB33F" d="M310.8,652.1c63.7-208.5,257.9-360.6,486.9-360.6s423.3,152.1,486.9,360.6c24.4,2.7,48.8,5.5,73.1,8.6
			c-62.6-251-290-437.4-560.1-437.4S300.3,409.8,237.7,660.7C262,657.7,286.4,654.8,310.8,652.1z"/>
		<path fill="#6DB33F" d="M1291.3,925c-55.7,220.7-255.9,384.5-493.6,384.5S359.8,1145.7,304.1,925c-22.7,2.7-45.4,5.6-68.1,8.6
			c60.3,254.3,289.2,444.1,561.7,444.1s501.4-189.8,561.7-444.1C1336.8,930.6,1314.1,927.7,1291.3,925z"/>
	</g>
	<g>
		<g>
			<path fill="#272525" d="M651.3,1205.2h-9.7v-7.9h-0.2c-5,6.3-11.6,9.5-19.6,9.5c-16.7,0-27.3-14.2-27.3-29.9
				c0-16.2,10.3-30.2,27.4-30.2c7.8,0,14.8,3.6,19.5,9.7h0.2v-8.1h9.7V1205.2z M604.4,1176.1c0,11.1,6.5,21.7,18.7,21.7
				c12.5,0,19-10.1,19-21.6c0-11.4-7.1-20.6-19.1-20.6C611.7,1155.7,604.4,1165.5,604.4,1176.1z"/>
			<path fill="#272525" d="M678.5,1156.4h0.2c4.7-6.3,11.8-9.7,19.6-9.7c16.7,0,27.3,14.4,27.3,30.2c0,16.2-10.3,29.9-27.4,29.9
				c-7.8,0-14.9-3.4-19.5-9.6h-0.2v40h-9.7v-88.9h9.7V1156.4z M678,1176.1c0,11.1,6.5,21.7,18.7,21.7c12.5,0,19-10.1,19-21.6
				c0-11.4-7.1-20.6-19.1-20.6C685.2,1155.7,678,1165.5,678,1176.1z"/>
			<path fill="#272525" d="M748.4,1156.4h0.2c4.7-6.3,11.8-9.7,19.6-9.7c16.7,0,27.3,14.4,27.3,30.2c0,16.2-10.3,29.9-27.4,29.9
				c-7.8,0-14.9-3.4-19.5-9.6h-0.2v40h-9.7v-88.9h9.7V1156.4z M747.9,1176.1c0,11.1,6.5,21.7,18.7,21.7c12.5,0,19-10.1,19-21.6
				c0-11.4-7.1-20.6-19.1-20.6C755.2,1155.7,747.9,1165.5,747.9,1176.1z"/>
			<path fill="#272525" d="M851.4,1165.2h-0.2c-4.5-5.7-10.1-9.6-17.7-9.6c-11.8,0-20.1,9.7-20.1,21.1c0,11.3,7.8,21.1,19.6,21.1
				c8.1,0,13.8-3.6,18.5-9.8h0.2v13c-5.6,3.8-11.3,5.8-18.1,5.8c-17.2,0-30.3-12.8-30.3-30c0-17,13.7-30.1,30.4-30.1
				c6.2,0,12.5,2.1,17.6,5.7V1165.2z"/>
			<path fill="#272525" d="M918.7,1205.2H909v-7.9h-0.2c-5,6.3-11.6,9.5-19.6,9.5c-16.7,0-27.3-14.2-27.3-29.9
				c0-16.2,10.3-30.2,27.4-30.2c7.8,0,14.8,3.6,19.5,9.7h0.2v-8.1h9.7V1205.2z M871.8,1176.1c0,11.1,6.5,21.7,18.7,21.7
				c12.5,0,19-10.1,19-21.6c0-11.4-7.1-20.6-19.1-20.6C879.1,1155.7,871.8,1165.5,871.8,1176.1z"/>
			<path fill="#272525" d="M959.7,1161.5c-1.3-3-4.2-5.8-7.8-5.8c-3.4,0-7,2.7-7,6.3c0,5.2,6.5,7.1,13.2,9.9
				c6.7,2.8,13.2,6.8,13.2,16.4c0,10.8-8.7,18.5-19.3,18.5c-9.6,0-17.1-5.5-20.1-14.4l8.6-3.6c2.4,5.3,5.2,9.1,11.6,9.1
				c5.2,0,9.2-3.5,9.2-8.7c0-12.7-25.7-8.4-25.7-26.3c0-9.6,7.8-16.1,17-16.1c6.5,0,12.6,4.6,15.1,10.5L959.7,1161.5z"/>
			<path fill="#272525" d="M995.2,1205.2h-9.7v-48h-5.9v-9h5.9v-20.5h9.7v20.5h10.2v9h-10.2V1205.2z"/>
		</g>
	</g>
	<g>
		<g>
			<g>
				<path fill="#919395" d="M626.9,589.7c-0.2-4.9-0.4-10.9-0.4-16.9h-0.2c-1.3,5.2-3,11.1-4.6,15.9l-5,16h-7.2l-4.4-15.8
					c-1.3-4.9-2.7-10.7-3.7-16.1h-0.1c-0.2,5.5-0.4,11.9-0.7,17l-0.7,15.6h-8.6l2.6-41h12.4l4,13.7c1.3,4.7,2.6,9.9,3.5,14.7h0.2
					c1.2-4.7,2.6-10.2,3.9-14.7l4.4-13.6h12.1l2.3,41h-9.1L626.9,589.7z"/>
				<path fill="#919395" d="M664,594.8l-2.9,10.5h-9.6l12.5-41h12.2l12.7,41h-10l-3.2-10.5H664z M674.4,587.9l-2.6-8.7
					c-0.7-2.4-1.5-5.5-2.1-7.9h-0.1c-0.6,2.4-1.2,5.5-1.9,7.9l-2.4,8.7H674.4z"/>
				<path fill="#919395" d="M705.3,564.9c3-0.5,7.4-0.9,12.4-0.9c6.1,0,10.3,0.9,13.3,3.2c2.4,1.9,3.8,4.8,3.8,8.6
					c0,5.2-3.7,8.8-7.2,10.1v0.2c2.9,1.2,4.4,3.9,5.5,7.7c1.3,4.6,2.6,10,3.3,11.6h-9.5c-0.7-1.2-1.6-4.5-2.9-9.6
					c-1.1-5.1-2.9-6.5-6.6-6.6h-2.8v16.1h-9.2V564.9z M714.5,582.5h3.7c4.6,0,7.4-2.3,7.4-5.9c0-3.8-2.6-5.7-6.8-5.7
					c-2.3,0-3.5,0.2-4.2,0.3V582.5z"/>
				<path fill="#919395" d="M752.4,564.4h9.2v18.1h0.2c0.9-1.6,1.9-3,2.8-4.5l9.3-13.6h11.4l-13.6,17.5l14.3,23.6h-10.8l-10-17.7
					l-3.5,4.3v13.4h-9.2V564.4z"/>
				<path fill="#919395" d="M825.1,588H810v9.7h16.9v7.6h-26.2v-41H826v7.6h-16v8.5h15.1V588z"/>
				<path fill="#919395" d="M852.3,572.1h-11v-7.8h31.5v7.8h-11.2v33.2h-9.3V572.1z"/>
				<path fill="#919395" d="M898,564.4v41h-9.3v-41H898z"/>
				<path fill="#919395" d="M917,605.4v-41h10.8l8.5,15c2.4,4.3,4.9,9.4,6.7,14.1h0.2c-0.6-5.4-0.8-11-0.8-17.2v-11.9h8.5v41h-9.7
					l-8.8-15.8c-2.4-4.4-5.1-9.7-7.1-14.5l-0.2,0.1c0.2,5.4,0.4,11.2,0.4,17.9v12.4H917z"/>
				<path fill="#919395" d="M1004.2,603.5c-2.9,1-8.3,2.3-13.7,2.3c-7.5,0-12.9-1.9-16.7-5.5c-3.8-3.5-5.8-8.9-5.8-14.9
					c0.1-13.6,10-21.4,23.4-21.4c5.3,0,9.4,1,11.4,2l-1.9,7.4c-2.3-1-5-1.8-9.5-1.8c-7.7,0-13.6,4.4-13.6,13.3
					c0,8.5,5.3,13.4,12.9,13.4c2.1,0,3.8-0.2,4.6-0.6v-8.6h-6.3v-7.2h15.3V603.5z"/>
			</g>
		</g>
		<g>
			<polygon fill="#6DB33F" points="1008.4,385.5 870.8,385.5 870.8,421 921.9,421 921.9,529 957.3,529 957.3,421 1008.4,421 			"/>
			<path fill="#6DB33F" d="M587.1,528.8h35.5V385.3h-35.5V528.8z M666.9,456.1l56.1-70.8h-50.2L622.6,456l0.1,0.1l-0.1,0.1
				l52.3,72.7h50.2L666.9,456.1z"/>
			<path fill="#6DB33F" d="M847.2,467.5c8.7-8.7,14.2-20.7,14.2-34c0-26.7-21.6-48.3-48.3-48.3h-77.5c0,0-0.7-0.1-0.6,0.3l-0.1,0.4
				v142.8h35.5v-47H807c6.7,0,12.1,5.3,12.4,12h0.1l5.2,35.3h36c0,0-4.6-35.8-4.7-36.2C854.9,481.6,852.4,475.3,847.2,467.5z
				 M770.4,420.9h42.4c6.9,0,12.5,5.6,12.5,12.5c0,6.9-5.6,12.4-12.5,12.4h-42.4V420.9z"/>
		</g>
	</g>
	<g>
		<path fill="#272525" d="M672.8,1095.6c-5.6,8.6-13.8,12.3-18.5,12.3c-4,0-5.9-2.4-6.3-5.3l-13.1,24.4h-8.4l28.1-52.3h8.4l-1.9,3.6
			c3.1-3.1,6.8-5.6,10.4-5.6C678.7,1072.6,682.4,1080.8,672.8,1095.6z M667.5,1078.6c-2.8,0-7.8,4.7-11.1,10.4
			c-3.5,5.8-4,10.4-1.2,10.4c2.7,0,7.7-4.6,11.1-10.4C669.7,1083.3,670.2,1078.6,667.5,1078.6z"/>
		<path fill="#272525" d="M723.9,1081c-0.5,0.5-11.8,14.4-20.1,13.1c-0.5,1-1.1,1.9-1.8,2.9c-5.8,8.7-12.1,12.8-17.9,12.8
			c-7.2,0-11-8.2-4-20c7-11.8,14.3-15.3,19.1-15.3c1,0,1.3,1.1,1.4,2.4c1.2-1.3,2.7-2.1,4-2.1c2.9,0,3.6,4.5,3,8.1
			c-0.2,1.5-0.5,3.3-1.3,5.4c4.9,0.9,13.7-8.2,14.9-9.8C722.7,1076.8,724.4,1080.5,723.9,1081z M698.6,1090.4
			c-1.8-2.8-1.7-6.1-0.7-8.9c-2.7,1.6-6.2,5.3-8.8,9.6c-3.4,5.7-4,10.4-1.2,10.4C691.6,1101.5,695.9,1095.5,698.6,1090.4z"/>
		<path fill="#272525" d="M772.4,1080.9c-0.5,0.6-11.4,16.2-20,12.3c-8.8,13-13.5,16.6-18,16.6c-6.1,0-7.8-5.3-5.4-11.4
			c0.5-1.3,1.2-2.9,1.9-4.7c-6.3,7.6-15.1,16.1-19.3,16.1c-5.3,0-6.4-5.7-3.4-11.3c2.2-4,12.8-23.9,12.8-23.9l8.4-0.1
			c0,0-8.9,16.2-11.2,20.5c-0.8,1.5-2.3,4.8,0.7,4.8c2.9,0,12.6-10.9,16.1-16.7c1.9-4.8,3.5-8.6,3.5-8.6l8.4-0.1
			c0,0-5.5,13-8.4,20.3c-1,2.5-0.8,4.9,1.5,4.9c3,0,6.5-4.3,9.5-9.8c-1.7-5.6,4-15.6,8.3-15.6c1.6,0,4.2,2.2,1.9,6.5
			c-1,1.7-3.9,6.7-3.9,6.7c4.4,3,12.6-7.6,14-9.3S772.9,1080.3,772.4,1080.9z"/>
		<path fill="#272525" d="M802.4,1080.8c-7.8,12.7-21.2,29-34.3,29c-13,0-15.7-10-8.4-21.7c5.9-9.4,13.2-13.6,17.9-13.6
			c7.7,0,12.5,7.3,4.9,16.8c-4.6,5.7-9.8,8.2-14.4,6.7c-1.2-0.3-2.1-0.9-2.8-1.6c-0.9,4.2,1,7,5.5,7c9.1,0,20.5-12.4,30.7-26.6
			C802.4,1075.7,802.9,1080.1,802.4,1080.8z M767.6,1091.1c-0.1,0.3-0.3,0.5-0.4,0.7c2.6,2,5.6,0,8.1-2.1c3.4-2.9,6.3-9.1,3.6-9.1
			C776.1,1080.7,771.1,1085.3,767.6,1091.1z"/>
		<path fill="#272525" d="M827.1,1081c-1.5,1.5-19,19.2-23.3,23.2c-4.6,4.4-7.5,5.6-9.7,5.6c-3.5,0-5-2.5-2.1-8.1
			c2.2-4,5.1-9.8,7.7-14.1c2.7-4.5-0.5-4.9-1.8-5.5c-2.9-1.5-7-6.2-3.1-11c3.1-3.8,7.7-3.1,10.3-1.4c2.8,1.8,0.3,5.4-2.9,8.8
			c0.3,0.4,0.7,0.7,1.2,1c4.1,2.3,9.3-0.4,5.8,6.4c-1.3,2.5-1.7,2.8-4,7.1c-0.8,1.4-2.2,4.4-1.8,4.8c0.4,0.5,1.7-0.7,3-1.9
			c2.1-1.7,18.1-17,20.1-19.1C827.6,1075.8,827.7,1080.5,827.1,1081z"/>
		<path fill="#272525" d="M856.9,1080.8c-7.8,12.7-21.2,29-34.3,29c-13,0-15.7-10-8.4-21.7c5.9-9.4,13.2-13.6,17.9-13.6
			c7.7,0,12.5,7.3,4.9,16.8c-4.6,5.7-9.8,8.2-14.4,6.7c-1.2-0.3-2.1-0.9-2.8-1.6c-0.9,4.2,1,7,5.5,7c9.1,0,20.5-12.4,30.7-26.6
			C856.9,1075.7,857.3,1080.1,856.9,1080.8z M822.1,1091.1c-0.1,0.3-0.3,0.5-0.4,0.7c2.6,2,5.6,0,8.1-2.1c3.4-2.9,6.3-9.1,3.6-9.1
			C830.5,1080.7,825.5,1085.3,822.1,1091.1z"/>
		<path fill="#272525" d="M858.7,1109.9c-3,0-4.6-1.8-3.1-5.7c-3.1,3.1-6.9,5.7-10.6,5.7c-7.2,0-9.4-8.5-1.9-20
			c7.5-11.5,14.3-15.3,19-15.3c3,0,5.3,2.8,5.9,5.9c6.1-11.4,12.3-23,12.3-23h8.4c0,0-16.7,31.2-19,35.5c-4.3,7.7-4.2,10.7-1.3,11.2
			C863.8,1108.6,860.9,1109.9,858.7,1109.9z M862,1091.1c3.5-5.7,4-10.4,1.3-10.4c-2.8,0-7.8,4.7-11.2,10.4
			c-3.4,5.7-3.9,10.4-1.2,10.4C853.6,1101.5,858.6,1096.8,862,1091.1z"/>
		<path fill="#272525" d="M924,1097.5c-5.6,8.6-13.8,12.3-18.5,12.3c-4,0-5.9-2.4-6.3-5.3l-2.9,5.3h-8.4l28.1-52.3h8.4l-12.2,22.7
			c3.1-3.1,6.8-5.6,10.4-5.6C929.9,1074.6,933.6,1082.8,924,1097.5z M918.7,1080.7c-2.7,0-7.8,4.7-11.1,10.4s-4,10.4-1.2,10.4
			c2.7,0,7.7-4.7,11.1-10.4C920.8,1085.3,921.4,1080.7,918.7,1080.7z"/>
		<path fill="#272525" d="M945.2,1119.3c-4.4,7.5-7.2,11.7-13.9,11.7c-3.3,0-8.2-2.3-8.2-7c0-6.1,8.8-8.4,19.5-14.8l6.2-11.9
			c-5.8,6.5-12.7,12.6-16.3,12.6c-5.3,0-6.5-5.7-3.5-11.3c2.2-4,12.8-23.9,12.8-23.9l8.4-0.1c0,0-7.6,14.1-9.9,18.4
			c-0.8,1.4-2.3,4.8,0.7,4.8s12.6-10.2,15.4-15.6c0.1-0.1,0.1-0.2,0.2-0.2l3.9-7.4h8.4L945.2,1119.3z M939.6,1114.9
			c-6.3,4.5-10.3,7.8-10.3,10.2c0,1.8,1,2.3,2.1,2.3c2.2,0,3.7-3.9,6.4-9L939.6,1114.9z"/>
	</g>
	<g>
		<circle fill="#6DB33F" cx="547.5" cy="1019.9" r="10.1"/>
		<circle fill="#6DB33F" cx="586" cy="1019.9" r="10.1"/>
		<circle fill="#6DB33F" cx="624.5" cy="1019.9" r="10.1"/>
		<circle fill="#6DB33F" cx="663" cy="1019.9" r="10.1"/>
		<circle fill="#6DB33F" cx="701.5" cy="1019.9" r="10.1"/>
		<circle fill="#6DB33F" cx="740" cy="1019.9" r="10.1"/>
		<circle fill="#6DB33F" cx="778.5" cy="1019.9" r="10.1"/>
		<circle fill="#6DB33F" cx="817" cy="1019.9" r="10.1"/>
		<circle fill="#6DB33F" cx="855.5" cy="1019.9" r="10.1"/>
		<circle fill="#6DB33F" cx="894" cy="1019.9" r="10.1"/>
		<circle fill="#6DB33F" cx="932.5" cy="1019.9" r="10.1"/>
		<circle fill="#6DB33F" cx="971" cy="1019.9" r="10.1"/>
		<circle fill="#6DB33F" cx="1009.5" cy="1019.9" r="10.1"/>
		<circle fill="#6DB33F" cx="1048" cy="1019.9" r="10.1"/>
	</g>
	<g>
		<path fill="#272525" d="M404.6,871.6H428l18.6,49l19.7-49h23.7l13.9,91.7h-23.8l-6.7-52.8h-0.2l-22,52.8h-9.5l-21-52.8h-0.2
			l-7.7,52.8H389L404.6,871.6z"/>
		<path fill="#272525" d="M559.3,947.4l-6.3,15.9h-25.3l35.3-91.7h26l34.5,91.7h-25.4l-6-15.9H559.3z M576,899.9h-0.2l-9.9,29.2
			h19.8L576,899.9z"/>
		<path fill="#272525" d="M652.9,871.6h23.8l43.7,56.1h0.2v-56.1h23.8v91.7h-23.8l-43.7-56.2h-0.2v56.2h-23.8V871.6z"/>
		<path fill="#272525" d="M805.3,947.4l-6.3,15.9h-25.3l35.3-91.7h26l34.5,91.7h-25.4l-6-15.9H805.3z M821.9,899.9h-0.2l-9.9,29.2
			h19.8L821.9,899.9z"/>
		<path fill="#272525" d="M990.3,912.1c-0.2,13.4-1.2,24.8-9.4,36.2c-9,12.5-22.5,18-37.8,18c-28.8,0-48.9-19.6-48.9-48.4
			c0-29.8,20.2-49.4,49.8-49.4c18.9,0,33.5,8.5,41.4,25.7l-22.6,9.5c-3.3-8.8-10.2-14.6-19.8-14.6c-15.7,0-23.8,15-23.8,29
			c0,14.2,8.5,28.7,24.2,28.7c10.3,0,18.2-5.4,19.2-15.9H943v-18.7H990.3z"/>
		<path fill="#272525" d="M1047,891.8v15.3h26.9v20.2H1047v15.8h28.3v20.2h-52.2v-91.7h52.2v20.2H1047z"/>
		<path fill="#272525" d="M1188.2,963.3h-29.7L1136,928h-0.2v35.3H1112v-91.7h35.6c18.1,0,31.9,8.6,31.9,28.2
			c0,12.7-7.1,23.6-20.1,25.9L1188.2,963.3z M1135.8,912.7h2.3c7.8,0,16.5-1.5,16.5-11.4s-8.8-11.4-16.5-11.4h-2.3V912.7z"/>
	</g>
	<g>
		<path fill="#272525" d="M1246.6,1259h-12.4v32.9h-9.8V1259H1212v-7.9h34.6V1259z M1298.5,1291.9h-8.9V1259h-0.2l-11.8,32.9h-5.2
			l-11.8-32.9h-0.2v32.9h-8.9v-40.8h14.3l9.2,24.1l9.2-24.1h14.3V1291.9z"/>
	</g>
	<g>
		<g>
			<path fill="#272525" d="M45.6,754.9c20.4-3.2,30.6-4.8,51-7.8c27.6-4.1,48.3,5.7,52.3,34.2c4,29.3-10.3,44.3-38.9,48.6
				c-7.4,1.1-11.1,1.6-18.6,2.8c2.5,16.5,3.7,24.7,6.2,41.1c-13,2-19.5,3-32.5,5C58.7,837.5,52.1,796.2,45.6,754.9z M87.5,806.6
				c2.2-0.3,3.3-0.5,5.5-0.8c11.9-1.8,23.7-3.5,21.5-18.6c-2.3-15.6-13.3-14.2-26.1-12.3c-2.2,0.3-3.3,0.5-5.6,0.8
				C84.7,788.1,85.7,794.3,87.5,806.6z"/>
			<path fill="#272525" d="M168.3,737c20.4-2.7,30.7-4,51.1-6.5c27.6-3.4,48.1,7,51.3,35.6c3.3,29.4-11.4,44.1-40,47.5
				c-7.4,0.9-11.2,1.4-18.6,2.3c2.1,16.5,3.1,24.8,5.2,41.3c-13,1.6-19.5,2.5-32.5,4.2C179.2,820,173.8,778.5,168.3,737z
				 M208.8,789.9c2.2-0.3,3.3-0.4,5.6-0.7c12-1.5,23.8-2.9,22-18.1c-1.9-15.7-12.9-14.6-25.8-13c-2.2,0.3-3.4,0.4-5.6,0.7
				C206.5,771.2,207.3,777.5,208.8,789.9z"/>
			<path fill="#272525" d="M387,755.4c-7.6-8.4-19-12.2-30.4-11.1c-20.4,1.9-32.6,18.5-30.7,37.9c2,19.7,17.1,32.5,37.6,30.6
				c10.7-1,21-7.1,27.2-15.8c1.4,15.6,2,23.4,3.4,39c-10.5,4.3-18.1,7.4-28.3,8.4c-17.5,1.6-34.7-3.4-49-13.8
				c-15.1-11-23.3-26.5-25.3-45c-1.8-17,3-34.1,14-47.7c11.3-13.9,28.9-23.3,47-25c10.8-1,20.9,0.4,31.2,3.5
				C385,732.1,385.7,739.8,387,755.4z"/>
			<path fill="#272525" d="M483.3,705.8c20.5-1.4,30.8-2,51.4-3.1c27.7-1.5,47.5,10.1,48.8,38.9c1.4,29.6-14.2,43.2-43,44.8
				c-7.5,0.4-11.2,0.6-18.7,1.1c1,16.6,1.5,24.9,2.5,41.5c-13.1,0.8-19.6,1.2-32.7,2C488.8,789.3,486.1,747.6,483.3,705.8z
				 M520.3,761.2c2.2-0.1,3.4-0.2,5.6-0.3c12-0.7,23.9-1.3,23.1-16.6c-0.8-15.8-11.9-15.4-24.9-14.6c-2.2,0.1-3.4,0.2-5.6,0.3
				C519.1,742.5,519.5,748.7,520.3,761.2z"/>
			<path fill="#272525" d="M744,756.1c0.5,40.6-28.4,69.5-68.7,70.6c-40.4,1.1-70.8-26.2-72.4-66.8c-1.6-37.9,31.6-66,68.8-67
				C708.9,691.9,743.5,718.1,744,756.1z M637.3,758.7c0.7,21.6,17.4,36.8,37.1,36.3c19.7-0.5,35.5-16.6,35.1-38.3
				c-0.3-17.3-17-32.8-37-32.3C652.6,725.1,636.7,741.4,637.3,758.7z"/>
			<path fill="#272525" d="M874.8,821.3c-16.3-0.3-24.5-0.3-40.8-0.5c-12.2-19.4-18.4-29.1-30.9-48.4c-0.1,0-0.2,0-0.3,0
				c0,19.3,0,29,0,48.3c-13.1,0-19.6,0-32.7,0.1c-0.3-41.8-0.6-83.6-0.9-125.5c20.1-0.1,30.1-0.2,50.2-0.1
				c25.6,0.1,44.8,12.2,44.4,39c-0.2,17.3-10.2,32.1-28.3,35.2C851.4,790.2,859.2,800.5,874.8,821.3z M802.8,751.6
				c1.3,0,1.9,0,3.2,0c10.8,0,23.1-1.9,23.1-15.6c0.1-13.6-12.2-15.7-23.1-15.7c-1.3,0-1.9,0-3.2,0
				C802.8,732.8,802.8,739.1,802.8,751.6z"/>
			<path fill="#272525" d="M943.7,822.9c-13.1-0.4-19.6-0.6-32.7-0.9c0.9-39.1,1.4-58.7,2.3-97.8c-11-0.3-16.6-0.4-27.6-0.6
				c0.2-11,0.3-16.6,0.5-27.6c35.7,0.6,53.5,1.1,89.2,2.4c-0.4,11-0.6,16.6-1,27.6c-11-0.4-16.6-0.6-27.6-0.9
				C945.5,764.2,944.9,783.8,943.7,822.9z"/>
			<path fill="#272525" d="M1030,728.4c-0.4,8.4-0.6,12.6-1,20.9c14.6,0.7,21.9,1.1,36.5,1.9c-0.6,11-0.9,16.5-1.5,27.6
				c-14.5-0.8-21.7-1.2-36.3-1.9c-0.9,19.7-1.4,29.5-2.3,49.2c-13.1-0.6-19.6-0.9-32.7-1.4c1.7-41.8,3.4-83.6,5.1-125.4
				c29.7,1.2,44.5,1.9,74.2,3.6c-0.6,11-0.9,16.5-1.5,27.6C1054.2,729.5,1046.1,729.1,1030,728.4z"/>
			<path fill="#272525" d="M1231.6,775.1c-3.7,40.4-35.3,66.2-75.6,63.2c-40.3-3-67.7-33.3-65.3-73.8c2.3-37.9,38.2-62.4,75.3-59.6
				C1203.2,707.7,1235,737.3,1231.6,775.1z M1125.2,766.8c-1.5,21.6,13.6,38.4,33.2,39.9c19.6,1.5,37-12.9,38.8-34.5
				c1.4-17.2-13.6-34.4-33.5-35.9C1143.8,734.9,1126.3,749.6,1125.2,766.8z"/>
			<path fill="#272525" d="M1286.4,818c15.7,1.6,23.6,2.5,39.3,4.2c-1.2,11-1.8,16.5-3.1,27.5c-28.7-3.2-43-4.7-71.7-7.4
				c4-41.6,8-83.3,12-124.9c13.4,1.3,20.1,1.9,33.5,3.3C1292.3,759.6,1290.4,779,1286.4,818z"/>
			<path fill="#272525" d="M1375.8,855.8c-13-1.6-19.5-2.4-32.6-3.9c4.8-41.5,9.6-83.1,14.4-124.6c13.4,1.5,20.1,2.3,33.4,4
				C1386,772.8,1380.9,814.3,1375.8,855.8z"/>
			<path fill="#272525" d="M1549.1,814.5c-6.4,40.1-39.8,63.7-79.8,58c-40.1-5.7-65.5-37.8-60.3-78c4.8-37.6,42.3-59.7,79.3-54.4
				C1525.2,745.3,1555.1,777,1549.1,814.5z M1443.3,799.1c-2.9,21.4,11,39.3,30.5,42.1c19.5,2.8,37.9-10.4,41.1-31.8
				c2.6-17.1-11.3-35.2-31.1-38C1464,768.5,1445.6,782,1443.3,799.1z"/>
		</g>
	</g>
</g>
</svg>
