<?xml version="1.0" encoding="utf-8"?>
<!-- Generator: Adobe Illustrator 20.1.0, SVG Export Plug-In . SVG Version: 6.00 Build 0)  -->
<!DOCTYPE svg PUBLIC "-//W3C//DTD SVG 1.1//EN" "http://www.w3.org/Graphics/SVG/1.1/DTD/svg11.dtd">
<svg version="1.1" id="Layer_1" xmlns="http://www.w3.org/2000/svg" xmlns:xlink="http://www.w3.org/1999/xlink" x="0px" y="0px"
	 viewBox="0 0 800 600" style="enable-background:new 0 0 800 600;" xml:space="preserve">
<style type="text/css">
	.st0{fill:#FFFFFF;}
	.st1{fill:#6CB34B;}
	.st2{fill:#FAAE31;}
	.st3{fill:#3F4346;}
	.st4{fill:#272A2B;}
	.st5{fill:#D56631;}
	.st6{fill:#CA232D;}
	.st7{fill:#244C52;}
</style>
<circle class="st0" cx="400" cy="300" r="144.7"/>
<g>
	<path class="st1" d="M400,53.7L400,53.7c-63,0-126,24-174.1,72.1l0,0C181.3,170.4,153.7,232,153.7,300c0,0,0,0,0,0l118.4,0
		c0,0,0,0,0,0c0-35.3,14.4-67.2,37.5-90.3l-11-11l10.9,10.9c0,0,0,0,0,0c25-24.9,57.7-37.4,90.4-37.4v0c0,0,0,0,0,0
		c35.3,0.1,67.2,14.4,90.3,37.5l83.8-83.8C529.6,81.3,468,53.7,400,53.7z"/>
	<path class="st2" d="M400.1,117.9C400.1,117.9,400,117.9,400.1,117.9l-0.1,54.3c35.3,0.1,67.2,14.4,90.4,37.5l38.4-38.3
		C495.8,138.3,450.3,117.9,400.1,117.9z"/>
	<g>
		<path class="st1" d="M490.4,390.4C490.4,390.4,490.4,390.4,490.4,390.4c-25,24.9-57.7,37.4-90.4,37.4v24.8l0-24.8c0,0,0,0,0,0
			c-35.3-0.1-67.2-14.4-90.3-37.5l-1,1l1-1c0,0,0,0,0,0c-24.9-25-37.4-57.7-37.4-90.4H153.7c0,63,24.1,126,72.1,174.1c0,0,0,0,0,0
			l0,0c44.5,44.3,106.4,72.2,174.1,72.2v0c63,0,126-24.1,174.1-72.1c0,0,0,0,0,0L490.4,390.4z"/>
		<g>
			<path class="st3" d="M400,172.2l0-54.2c-46.5,0-93.1,17.7-128.7,53.1l0,0c-32.9,32.9-53.4,78.6-53.5,128.9c0,0,0,0,0,0.1h0.1
				h54.2c0.1-35.3,14.4-67.2,37.5-90.4l-2.2-2.2l2.2,2.2C334.6,184.7,367.3,172.2,400,172.2z"/>
			<path class="st3" d="M400,482.1l0-54.3c-35.3-0.1-67.2-14.4-90.3-37.5l-0.5,0.5l0.4-0.4c-24.9-25-37.4-57.7-37.4-90.4l-54.2,0
				c0,46.6,17.7,93.1,53.2,128.7c0,0,0,0,0.1,0l0,0C304.1,461.6,349.8,482.1,400,482.1C400,482.1,400,482.1,400,482.1z"/>
			<path class="st3" d="M490.4,390.4c-25,24.9-57.7,37.4-90.4,37.4V482c46.6,0,93.1-17.7,128.7-53.2c0,0,0,0,0-0.1L490.4,390.4z"/>
		</g>
	</g>
	<g>
		<path class="st3" d="M646.3,300.1C646.3,300,646.3,300,646.3,300.1l-118.4,0c0,0,0,0,0,0c-0.1,35.3-14.4,67.2-37.5,90.3l83.8,83.8
			C618.7,429.6,646.3,368,646.3,300.1z"/>
		<path class="st4" d="M582.1,300.1C582.1,300.1,582.1,300,582.1,300.1l-54.3-0.1c-0.1,35.3-14.4,67.2-37.5,90.3l38.4,38.4
			C561.7,395.8,582,350.3,582.1,300.1z"/>
	</g>
	<g>
		<path class="st5" d="M574.2,125.9C574.2,125.9,574.2,125.9,574.2,125.9l-83.7,83.7c0,0,0,0,0,0c24.9,25,37.4,57.7,37.4,90.4h118.5
			C646.3,237,622.3,174,574.2,125.9z"/>
		<path class="st6" d="M528.8,171.3C528.8,171.2,528.8,171.2,528.8,171.3l-38.4,38.3c24.9,25,37.4,57.7,37.4,90.4l54.2,0
			C582.1,253.4,564.3,206.9,528.8,171.3z"/>
	</g>
</g>
<rect x="13.3" y="242.2" class="st0" width="773.4" height="115.7"/>
<g>
	<path class="st7" d="M105.3,339.3l-4.5-33.1c-0.6-4.6-1.2-10.3-1.6-17.2c-1.1,6.8-2.7,11.4-3.5,14.4l-10.4,35.9H71.4L61,303.3
		c-0.9-3-2.5-7.6-3.5-14.4c-0.4,6.9-1.1,12.5-1.7,17.2l-4.5,33.1H31.8l11.8-76.7h20.7l11.6,39.6c0.8,2.5,1.8,5.8,2.5,10.4
		c0.5-4.3,1.5-7.7,2.4-10.5l11.7-39.5h20.7l11.8,76.7H105.3z"/>
	<path class="st7" d="M136.1,262.6h47v16.8h-26.6v13.3h25.1v16.4h-25.1v13h26.6v17.2h-47V262.6z"/>
	<path class="st7" d="M196.9,262.6h16c0.9,0,1.6,0,2.5,0c14.3,0,25.7,0.2,35.8,7.3c9.6,6.8,14.8,17.4,14.8,31.1
		c0,13.6-5.1,24.2-14.8,31.1c-9.5,6.8-20.2,7.2-32.9,7.2c-1.7,0-3.5,0-5.4,0h-16V262.6z M221.1,322.1c16,0,23.6-6.1,23.6-21.1
		c0-15.2-7.8-21.2-23.6-21.2h-3.5v42.3H221.1z"/>
	<path class="st7" d="M279.6,262.6h21.1v76.7h-21.1V262.6z"/>
	<path class="st7" d="M335,262.6h26.2l26.5,76.7h-20.8l-3.9-13.7h-29.7l-4,13.7h-20.8L335,262.6z M358.6,310.6l-7.8-25.3
		c-0.3-1.2-1.2-4.6-2.6-10.3c-1.4,5.7-2.4,9.1-2.7,10.3l-7.7,25.3H358.6z"/>
	<path class="st7" d="M450.1,325c5.8,0,9.5-3.4,9.5-7.9c0-6.1-4.2-7.9-12.9-10.2c-13.8-3.6-20.6-9.2-20.6-21.2
		c0-14.3,10.4-24.9,26.5-24.9c8.6,0,16.1,2.3,22.7,6.9l-6.5,15c-4.8-4.1-10-6.1-14.7-6.1c-5.1,0-8.5,2.8-8.5,6.4
		c0,5.5,5.3,6.6,12.2,8.5c13.6,3.6,21.1,8.7,21.1,22.8c0,16-11.4,27-29.4,27c-10.8,0-19-3.4-27.2-11.3l9.4-15.5
		C438,321.5,444,325,450.1,325z"/>
	<path class="st7" d="M546.3,288.4c-5.6-6.2-10.9-9.2-17.7-9.2c-12.1,0-20.2,9.2-20.2,22.2c0,11.8,7.9,21.3,20.2,21.3
		c6.8,0,12.1-3,17.7-9.2v22.8c-6.6,3.2-13,4.8-19.8,4.8c-22.6,0-38.9-17-38.9-40.2s16.3-40.2,38.9-40.2c6.9,0,13.2,1.6,19.8,4.8
		V288.4z"/>
	<path class="st7" d="M624.9,329.5c-7.8,7.6-18.3,11.8-29.1,11.8c-9.3,0-18.7-3.3-26.1-9.2c-9.6-7.7-14.9-18.7-14.9-31
		c0-10.9,4.2-20.8,12-28.4c7.7-7.5,18.2-11.8,28.9-11.8s21.3,4.3,29.1,11.8c7.8,7.6,11.9,17.6,11.9,28.4
		C636.8,312,632.6,322,624.9,329.5z M615.9,301.1c0-12.4-8.4-22.5-20-22.5c-11.8,0-20,10-20,22.5c0,12.7,7.8,22.5,20,22.5
		C607.7,323.6,615.9,313.6,615.9,301.1z"/>
	<path class="st7" d="M649.8,262.6h21.9c0.4,0,0.9,0,1.3,0c10.6,0,18.8,0.1,25.3,5.1c5.6,4.3,8.6,10.8,8.6,18.8
		c0,11.9-6,19.5-17.2,21.9l20.9,30.9H687l-17.6-30v30h-19.6V262.6z M673.3,298.8c8.8,0,13-2.8,13-9.5c0-8-4-10.6-12.7-10.6h-4.2
		v20.2H673.3z"/>
	<path class="st7" d="M718.6,262.6h47v16.8h-26.6v13.3H764v16.4h-25.1v13h26.6v17.2h-47V262.6z"/>
</g>
<g>
	<g>
		<polygon class="st1" points="442.2,205.2 414.3,205.2 414.3,212.4 424.6,212.4 424.6,234.2 431.8,234.2 431.8,212.4 442.2,212.4 
					"/>
		<path class="st1" d="M357.8,234.2h7.2v-29h-7.2V234.2z M374,219.5l11.4-14.3h-10.2L365,219.5l0,0l0,0l10.6,14.7h10.2L374,219.5z"
			/>
		<path class="st1" d="M410.3,221.8c1.8-1.8,2.9-4.2,2.9-6.9c0-5.4-4.4-9.8-9.8-9.8h-15.7c0,0-0.1,0-0.1,0.1l0,0.1v28.9h7.2v-9.5
			h7.4c1.4,0,2.5,1.1,2.5,2.4h0l1.1,7.2h7.3c0,0-0.9-7.3-0.9-7.3C411.9,224.6,411.4,223.3,410.3,221.8z M394.8,212.3h8.6
			c1.4,0,2.5,1.1,2.5,2.5c0,1.4-1.1,2.5-2.5,2.5h-8.6V212.3z"/>
	</g>
</g>
</svg>
