<?xml version="1.0" encoding="utf-8"?>
<!-- Generator: Adobe Illustrator 20.1.0, SVG Export Plug-In . SVG Version: 6.00 Build 0)  -->
<!DOCTYPE svg PUBLIC "-//W3C//DTD SVG 1.1//EN" "http://www.w3.org/Graphics/SVG/1.1/DTD/svg11.dtd">
<svg version="1.1" id="Layer_1" xmlns="http://www.w3.org/2000/svg" xmlns:xlink="http://www.w3.org/1999/xlink" x="0px" y="0px"
	 viewBox="0 0 400 154.5" style="enable-background:new 0 0 400 154.5;" xml:space="preserve">
<g>
	<path d="M253.5,21.8c-0.1,0.4-0.2,0.7-0.2,0.9c-0.1,2.2-0.1,4.4-0.2,6.6c-0.2,7.4-0.3,14.8-0.5,22.2c-0.2,5.9-0.5,11.8-0.7,17.7
		c-0.1,2.5-0.2,5.1-0.2,7.6c0,0.2,0.2,0.4,0.4,0.5c1.2,0.3,2.4,0.2,3.6-0.5c1.1-0.7,3-0.1,3.5,1.1c0.3,0.7,0,1.5-0.7,2.1
		c-1,0.8-2.2,1.4-3.4,1.6c-1.3,0.3-2.6-0.1-3.9-0.4c-2-0.5-4.1-1-6.2-1.4c-0.6-0.1-1.3,0.2-1.8,0.4c-0.6,0.2-1.1,0.6-1.7,0.9
		c-1.2,0.5-2.6,0-3-1.3c-0.1-0.3-0.1-0.7,0-1c0.8-2,2.3-3.2,4.4-3.3c1.1-0.1,2.2,0.2,3.3,0.3c0.2,0,0.4,0.1,0.7,0.1
		c0.1-2.1,0.2-4.1,0.3-6.1c0.3-6.3,0.6-12.7,0.9-19c0.3-7.7,0.6-15.3,0.8-23c0.1-2.5,0.2-5,0.2-7.5c0-1.2-0.1-2.5-0.3-3.7
		c-0.3-1.7,0.2-2.6,2.4-2.5c1.5,0.1,2.7,1,3.7,2c1.9,2,3.7,4.1,5.6,6.2c10.4,11.8,20.9,23.5,31.3,35.3c5.2,5.9,10.2,12,15.3,17.9
		c0.1,0.2,0.3,0.3,0.5,0.6c1.7-17.8,3.3-35.4,5-53c-1.9-0.7-3.7-1-5.5,0c-1,0.6-3.1-0.4-3.4-1.6c-0.2-0.9,0.3-1.5,0.9-1.9
		c1.6-1.1,3.4-1.7,5.4-1.4c0.8,0.1,1.5,0.4,2.3,0.6c2.2,0.6,4.4,1.3,6.7,1.8c0.5,0.1,1.2-0.1,1.8-0.3c0.7-0.2,1.4-0.6,2-0.8
		c1.4-0.5,2.3,0.1,3.1,1.4c0.2,0.3,0.1,0.8-0.1,1.2c-0.9,1.8-2.5,2.8-4.4,2.9c-1.1,0.1-2.3-0.2-3.5-0.4c-0.2,0-0.5-0.1-0.7-0.2
		c-0.1,1.5-0.2,2.9-0.3,4.2c-0.4,4.1-0.7,8.1-1.1,12.2c-0.6,6.3-1.1,12.6-1.6,18.9c-0.4,5.6-0.6,11.1-1.4,16.7
		c-0.2,1.1-0.3,2.1-0.6,3.2c-0.2,1.1-0.2,2.2,0.4,3.2c0.6,1.1,0,2.5-1.2,2.6c-1.3,0.1-2.7,0-3.6-1.1c-0.3-0.4-0.6-0.7-0.9-1.1
		c-2.5-4.1-5.7-7.7-8.8-11.3c-3.9-4.5-7.5-9.2-11.4-13.7c-4.7-5.4-9.5-10.7-14.3-15.9c-5.4-5.9-10.9-11.8-16.3-17.7
		c-0.5-0.5-0.8-1.1-1.2-1.7C254.1,22.6,253.8,22.3,253.5,21.8z"/>
	<path d="M193.6,109.2c1.1,0.3,2.2,0.5,3.3,0.7c4.2,1.1,7.1,3.8,9.1,7.6c2.9,5.7,3.1,11.5,1,17.5c-1.8,5-5.5,7.8-10.6,8.8
		c-1.9,0.3-3.8,0.5-5.7,0.5c-7.9,0-15.8,0-23.7,0c-5.5,0-11,0-16.4,0c-3,0-6.1,0-9.1-0.1c-1.2,0-2.3,0-3.5-0.1
		c-1.4-0.1-1.7-0.6-1.7-2.4c0-1,0.5-1.5,1.7-1.6c1.7-0.1,3.5-0.1,5.3-0.1c0.9,0,1.8,0,2.7-0.1c0.8-0.1,1.1-0.3,1.1-1.1
		c0-1.4,0-2.9-0.1-4.3c0-0.8,0-1.6,0-2.5c0-4.1,0-8.3,0-12.4c0-7.2,0-14.4,0-21.6c0-0.8,0.1-1.6,0.1-2.5c0-1.6-0.4-2-1.9-2
		c-2.1,0-4.2,0-6.2,0.1c-0.3,0-0.7,0-1,0c-0.3,0-0.7-0.1-0.9-0.3c-1-0.6-0.7-1.6-0.7-2.5c0-0.8,0.4-1.2,1.2-1.3
		c0.4-0.1,0.9-0.1,1.3-0.1c15.5,0,31,0,46.6,0c1.6,0,3.3,0.1,4.8,0.5c3.7,1,5.8,3.6,6.7,7.2c0.6,2.7,0.4,5.5-0.5,8.1
		C195.9,106.8,195.4,107.4,193.6,109.2z M172.5,140.1c0,0,0-0.1,0-0.1c3.2,0,6.4,0,9.6,0c2.6,0,5.2,0.1,7.8,0c1.7,0,3.5-0.2,5.2-0.4
		c3.4-0.5,5.9-2.3,7.2-5.5c1.4-3.4,1.8-6.8,1.3-10.4c-0.4-2.3-1.2-4.5-2.6-6.4c-2.2-3-5.4-4.1-8.9-4.3c-2.8-0.1-5.6,0-8.4,0
		c-7.9,0-15.8,0-23.8,0c-2.1,0-4.2,0-6.3,0c-1.8,0-2.5,0.7-2.5,2.6c0,3.1,0,6.1,0,9.2c0,4.3,0,8.7,0,13c0,0.4,0.1,0.9,0.1,1.3
		c0,0.5,0.3,0.8,0.8,0.9c0.5,0.1,1,0.1,1.5,0.1C159.8,140.1,166.2,140.1,172.5,140.1z M170,93.7c0,0,0-0.1,0-0.1c-2.7,0-5.4,0-8.1,0
		c-2.9,0-5.8,0.1-8.6,0.1c-1.9,0-2.2,0.3-2.2,2.1c0,3.7,0,7.4,0,11.2c0,1,0.5,1.7,1.5,1.9c0.6,0.1,1.2,0.1,1.7,0.1
		c5.1,0,10.1,0,15.2,0c4.3,0,8.7,0,13,0c2.1,0,4.2-0.3,6-1.3c1.8-1,3.4-2.2,4-4.4c0.4-1.5,0.5-3,0.2-4.5c-0.6-3.2-2.3-4.7-5.6-4.9
		c-1.4-0.1-2.7-0.1-4.1-0.1C178.7,93.6,174.3,93.7,170,93.7z"/>
	<path d="M358.7,91.3c-5.3,0.5-10.3-1-15.1-3.1c-6.8-2.9-12.5-7.1-16.7-13.2c-2.6-3.8-4.5-8-5.3-12.6c-0.8-5-0.2-9.9,1.6-14.7
		c2.4-6.4,6.1-12,11.7-16.1c5.1-3.8,10.9-6,17.1-6.9c5.6-0.8,11.1-0.5,16.4,1.3c5.1,1.7,9.5,4.8,13.4,8.5c4.2,4,7.4,8.7,9.2,14.2
		c0.7,2.3,1.5,4.6,1.6,7.1c0,0.3,0,0.7,0,1c0,0.2-0.1,0.5-0.2,0.7c-1,1.4-3.6,1.2-4.3-0.4c-0.3-0.8-0.5-1.7-0.6-2.6
		c-1.3-6.3-3.8-12-8.5-16.5c-4.6-4.5-9.9-7.7-16.4-8.6c-13.4-1.8-29.4,4.2-34.9,20.9c-2.8,8.6-1.6,16.7,3.5,24.2
		c1.8,2.6,4.4,4.5,7,6.3c4.2,2.9,8.7,4.9,13.8,5.8c3.3,0.6,6.6,0.6,10,0.2c3.7-0.4,7.4-1,10.9-2.1c5-1.4,8.5-4.5,10.8-9.1
		c0.8-1.6,1.7-3.2,2.5-4.8c0.4-0.8,0.3-1.5-0.6-1.8c-1-0.4-2-0.6-3-0.7c-3.6-0.6-7.1-1.1-10.7-1.6c-4.2-0.6-8.3-1.1-12.5-1.7
		c-1-0.1-2-0.3-2.9-0.4c-0.2,0-0.4-0.1-0.6,0c-0.9,0-1.1,0.4-0.8,1.2c0.2,0.4,0.4,0.8,0.6,1.2c0.3,0.5,0.6,1,0.9,1.6
		c0.5,1.2,0.4,1.8-0.4,2.5c-1,0.8-1.9,0.9-2.9,0.2c-1.2-0.8-1.7-2-2.1-3.3c-0.8-2.3-0.8-4.7,0.3-6.9c0.2-0.4,0.3-0.7,0.5-1.1
		c0.7-1.4,1-2.8,0.7-4.4c-0.3-1.4,0.1-2,1-2.2c1.4-0.4,2.4,0.1,2.9,1.4c0.6,1.5,0.4,3-0.1,4.4c-0.1,0.4-0.3,0.7-0.5,1.1
		c-0.3,0.5-0.1,0.7,0.4,0.8c0.8,0.1,1.6,0.2,2.4,0.3c5,0.6,9.9,1.3,14.9,2c3.7,0.5,7.4,1.2,11.2,1.7c1.4,0.2,2.8,0.4,4.2,0.6
		c0.8,0.1,1.5,0.5,2,1.1c1,1.2,1.1,1.9,0.3,3.2c-0.4,0.7-0.7,1.4-1,2.1c-2.6,6.7-6.7,12.1-13.1,15.6c-3.1,1.7-6.4,2.7-9.8,3.2
		c-2.9,0.4-5.8,0.7-8.8,1C358.7,91.4,358.7,91.3,358.7,91.3z"/>
	<path d="M166.8,50.8c-0.2,8.1-2.4,14.8-7.1,20.5c-2.9,3.5-6.7,5.9-10.9,7.7c-4.6,1.9-9.3,3.2-14.2,3.8c-2.6,0.3-5.1,0-7.7-0.3
		c-4.8-0.7-9.5-1.9-13.8-4.2c-6.8-3.5-12.1-8.7-15.4-15.6c-2.7-5.7-3-11.7-1.8-17.9c1.3-6.3,3.8-12.1,8.2-16.8
		c6.6-7,14.8-11,24.3-12c6.7-0.7,13,0.9,18.9,4c5.6,2.9,10.3,6.8,13.8,12.1c2.7,4.2,4.7,8.8,5.1,13.9
		C166.5,47.8,166.6,49.6,166.8,50.8z M162,51.1c-0.1-0.8-0.1-2-0.2-3.2c-0.2-4.3-1.3-8.3-3.8-11.8c-0.4-0.6-0.9-1.2-1.3-1.9
		c-4.5-7.6-16.4-15.7-29.2-13.4c-8.1,1.4-15,4.9-20.2,11.3c-6.1,7.5-8.4,16.2-6.1,25.7c1.4,5.8,4.3,10.7,9.1,14.3
		c2.8,2.1,6.1,3.5,9.4,4.6c4.6,1.6,9.3,2.3,14.2,1.7c6.4-0.8,12.2-3,17.9-6c4.1-2.1,7-5.4,8.3-9.9C161.2,59,162,55.3,162,51.1z"/>
	<path d="M172.4,41c0-3.2,0-6.5,0-9.7c0-2.7,0.2-5.3,0.2-8c0-1.2-0.2-2.4-0.4-3.7c0-0.2-0.1-0.5-0.2-0.7c-0.5-1-1.1-1.3-2.1-0.8
		c-0.6,0.3-1.1,0.7-1.6,1c-0.9,0.6-1.9,0.6-2.9,0.2c-1.5-0.6-1.7-2.3-0.4-3.3c2.9-2.2,6-2.7,9.4-1.6c0.8,0.3,1.6,0.5,2.4,0.8
		c1.6,0.6,3.3,0.8,5,0.4c0.7-0.2,1.3-0.2,1.9,0.4c0.8,0.8,0.8,2.1-0.2,2.7c-1.4,0.9-3.1,1.3-4.7,1.2c-1.8-0.1-1.9-0.1-1.9,1.7
		c0.1,4,0.3,8,0.4,12.1c0.1,3.8,0.1,7.6,0.1,11.3c0,3.7-0.2,7.4,0.4,11.1c1.3,8.2,5.9,14,13.2,17.7c4.5,2.3,9.4,3.3,14.5,3
		c3.9-0.2,7.6-1.1,11.1-2.8c4.4-2.1,8-5.1,10.6-9.3c1.9-3,2.8-6.3,3.2-9.8c0.5-3.9,0.2-7.9,0.2-11.9c0-3.7,0.2-7.4,0.2-11
		c0.1-3.9,0.2-7.7,0.3-11.6c0-0.6-0.2-0.8-0.8-0.7c-1.6,0.3-3.1,0-4.6-0.4c-0.6-0.2-1.2-0.6-1.7-1.1c-0.6-0.5-0.2-1.2,0-1.8
		c0.2-0.6,0.7-1,1.4-1c0.5,0,1,0.1,1.4,0.2c1.4,0.3,2.8,0,4.1-0.4c1.6-0.5,3.2-1.1,4.8-1.3c2.8-0.5,5.4,0.4,7.5,2.2
		c0.9,0.8,0.8,2.1-0.2,2.8c-1.1,0.8-2.2,0.7-3.4,0.1c-0.5-0.3-1-0.6-1.5-0.9c-1.2-0.6-2-0.4-2.3,0.9c-0.3,1.3-0.6,2.7-0.5,4
		c0,6.6,0.2,13.3,0.2,19.9c0,3.5-0.1,6.9-0.3,10.4c-0.2,3.9-1,7.6-2.5,11.2c-1.7,4.2-4.7,7.5-8.4,9.9c-5.9,3.8-12.4,5.8-19.4,6
		c-6.8,0.2-13.1-1.4-19.1-4.6c-6.8-3.6-11-9.3-12.4-16.9c-0.7-3.4-1-6.9-1-10.3C172.4,46.3,172.4,43.6,172.4,41
		C172.4,41,172.4,41,172.4,41z"/>
	<path d="M67.4,84.8c1.4,0,2.7-0.2,3.7-1.2c0.8-0.8,2.3-0.6,3.3,0.4c0.7,0.6,0.6,1.7-0.2,2.6c-1.7,1.9-3.9,2.7-6.5,2.4
		c-1.7-0.2-3.4-0.3-5.1-0.4c-0.3,0-0.5,0-0.8,0c-1.1-0.2-2,0.2-2.9,0.9c-0.5,0.4-1,0.8-1.5,1.1c-1,0.7-2.6,0.2-3.1-0.9
		c-0.2-0.4-0.1-0.9,0-1.3c0.6-2.1,2.1-3.4,4.3-3.8c1-0.2,2.1-0.1,3.1-0.2c0.3-1.7,0.1-3.4-0.2-5.1c-0.8-4.9-1.6-9.8-2.3-14.7
		c-0.2-1.6-0.4-3.2-0.6-4.8c-0.2-2.1-1.1-3.8-2.9-4.9c-2.7-1.8-5.5-3.5-8.3-5.2c-8.2-5.1-16.7-9.6-25.5-13.7c-1-0.5-1.9-0.9-2.8-1.5
		c-0.5-0.3-0.9-0.2-1.4-0.1c-1.3,0.3-2.6,0.7-3.9,0.8c-1.7,0.1-3.2-0.7-4.3-2.1c-0.4-0.5-0.8-1-0.5-1.7c0.4-0.8,1-1.6,2-1.6
		c0.5,0,1,0.1,1.5,0.2c0.4,0.1,0.7,0.2,1,0.4c1.1,0.5,2.2,0.5,3.3,0.1c2-0.8,4.1-1.4,6.1-2.2c2.3-0.9,4.6-0.8,6.8,0.3
		c0.3,0.2,0.7,0.4,0.9,0.7c0.8,0.8,0.8,1.7-0.1,2.5c-1,0.8-1.9,1.3-3.2,0.6c-1.3-0.7-2.7-0.3-4.2,0.3c0.1,0.1,0.2,0.2,0.3,0.2
		c5.4,1.9,10.4,4.8,15.4,7.7c4.5,2.5,9,5.1,13.5,7.7c1.2,0.7,2.3,1.6,3.5,2.3c1,0.6,2.1,1,3.3,1.4c1.2,0.4,2.3,0,3.2-0.9
		c0.8-0.7,1.5-1.6,2.2-2.4c5.5-6.2,11.5-11.9,17.6-17.4c2.1-1.9,4.2-3.7,6.2-5.6c0.6-0.6,1.1-1.3,1.7-2c-1.6-0.2-2.9-0.1-4.1,0.8
		C85,25,83.7,25,82.5,24c-0.5-0.4-0.7-0.9-0.5-1.5c0.2-0.4,0.4-0.9,0.7-1.2c1.9-1.9,4.2-2.6,6.9-2.2c2.3,0.3,4.6,0.5,6.9,0.6
		c0.7,0,1.4-0.4,2-0.7c0.6-0.3,1.1-0.8,1.7-1.1c1.4-0.8,2.5-0.2,3.4,0.8c0.2,0.3,0.2,0.8,0.1,1.2c-0.7,2.2-2.3,3.3-4.5,3.7
		c-0.8,0.1-1.6,0.1-2.3,0.1c-0.5,0-0.9,0.1-1.2,0.4c-2.2,2-4.3,4-6.5,6c-2.5,2.3-5,4.6-7.4,6.9c-3.4,3.2-6.8,6.5-10.1,9.8
		c-2,2-4.1,4-6,6c-0.8,0.9-1.4,2-2,3.1c-0.5,1-0.2,2.1,0,3.1c1,7.1,2,14.2,3,21.3C67,81.9,67.2,83.3,67.4,84.8z"/>
	<path d="M266.2,108.7c0.8,0,1.4-0.3,2-0.8c1.3-1.1,2.5-1.1,3.5,0.3c0.2,0.3,0.3,0.9,0.3,1.3c-0.4,1.7-2.3,3.3-4.1,3.3
		c-1.9-0.1-3.8-0.4-5.7-0.7c-0.9-0.1-1.7-0.3-2.6-0.3c-0.6,0-1.3,0.3-1.8,0.6c-0.7,0.5-1.4,0.6-2.1,0.2c-0.3-0.2-0.5-0.3-0.8-0.5
		c-1.1-0.9-1.1-1.7-0.1-2.7c1.7-1.7,3.7-2.2,6-1.7c0.1,0,0.1,0,0.2,0c0,0,0,0,0.1-0.1c-0.2-0.4-0.3-0.8-0.5-1.2
		c-2.7-5.4-6.8-9.4-12.4-11.9c-4.7-2.1-9.5-2.1-14.3-0.8c-10.2,2.9-16.3,9.6-18.2,20c-1.3,7.1,0.5,13.4,5.4,18.8
		c2,2.2,4.6,3.6,7.3,4.7c7.8,3.3,15.7,3.4,23.5,0.1c3.4-1.5,6.4-3.6,8.5-6.8c1.3-2,2-4.3,2.6-6.6c0.3-1.1,1-1.6,2-1.4
		c1,0.1,2,1.1,1.9,2c0,0.6-0.2,1.2-0.4,1.8c-2.1,6.6-6.1,11.5-12.6,14.4c-4.6,2.1-9.4,3.3-14.4,3.1c-11-0.5-20.1-4.8-25.9-14.6
		c-3.4-5.7-3.9-11.8-2.3-18.2c1.2-5,3.4-9.5,6.9-13.3c4.8-5.2,10.8-8.2,17.8-9.2c7.3-1.1,13.7,1.2,19.5,5.4
		c4.3,3.1,7.6,6.9,9.7,11.8C265.7,106.8,265.9,107.7,266.2,108.7z"/>
</g>
<circle cx="129.9" cy="117.3" r="3.1"/>
<path d="M124.2,117.3c0,0-37.4,5-37.4,0S124.2,117.3,124.2,117.3z"/>
<path d="M124.2,113.2c0,0-36.7-6.2-30.8-10.3S124.2,113.2,124.2,113.2z"/>
<path d="M124.2,121.5c0,0-36.7,6.2-30.8,10.3C99.2,136,124.2,121.5,124.2,121.5z"/>
<circle cx="278" cy="117.3" r="3.1"/>
<path d="M283.7,117.3c0,0,37.4,5,37.4,0S283.7,117.3,283.7,117.3z"/>
<path d="M283.7,113.2c0,0,36.7-6.2,30.8-10.3S283.7,113.2,283.7,113.2z"/>
<path d="M283.7,121.5c0,0,36.7,6.2,30.8,10.3C308.7,136,283.7,121.5,283.7,121.5z"/>
</svg>
